<svg t="1768108514590" class="icon" viewBox="0 0 1024 1024" version="1.1" xmlns="http://www.w3.org/2000/svg" p-id="5496" width="200" height="200"><path d="M746.4 464.667c-42 67.2-117.6 105-205.8 117.6 4.2 25.2 0 63 21 100.8 42 79.8 75.6 168 88.2 231 71.4 29.4 218.4-42 260.4-134.4 46.2-100.8 0-201.6-75.6-210-75.6-8.4-117.6 33.6-109.2 79.8 8.4 46.2 50.4 46.2 96.6 16.8 46.2-29.4 88.2 33.6 37.8 58.8s-126 46.2-168-4.2c-46.2-50.4-42-231 142.8-214.2 184.8 16.8 176.4 264.6 117.6 344.4-58.8 92.4-130.2 159.6-340.2 159.6H276c-84 0-25.2-176.4 50.4-323.4 21-42 16.8-75.6 21-100.8-92.4-12.6-168-50.4-205.8-117.6H87c-12.6-4.2-21-12.6-21-25.2s8.4-21 21-21h33.6c-4.2-12.6-8.4-25.2-8.4-42H45c-12.6 0-21-8.4-21-21s8.4-21 21-21h63c0-58.8 16.8-105 42-138.6v-168c0-21 16.8-33.6 37.8-25.2l189 84c25.2-4.2 46.2-4.2 67.2-4.2s42 0 63 4.2l189-84c21-8.4 37.8 0 37.8 25.2v168c25.2 37.8 42 84 42 138.6h63c16.8 0 25.2 8.4 25.2 21s-8.4 21-21 21h-67.2c-4.2 16.8-4.2 29.4-8.4 42H801c12.6 0 21 8.4 21 21s-8.4 21-21 21h-54.6z" p-id="5497"></path></svg>