<svg class="icon" viewBox="0 0 1024 1024" version="1.1" xmlns="http://www.w3.org/2000/svg"><path d="M691.73 162H332.27c-78.239 0-141.892 63.648-141.892 141.892V682.27c0 36.508 29.704 66.216 66.216 66.216h56.212l-46.078 56.757L220.65 862h582.698l-46.078-56.757-46.078-56.757h56.212c36.512 0 66.216-29.709 66.216-66.216V303.892C833.622 225.648 769.969 162 691.73 162z m0 56.757c46.942 0 85.135 38.189 85.135 85.135v113.513H540.378V218.757H691.73z m-359.46 0h151.351v198.649H247.135V303.892c0-46.946 38.194-85.135 85.135-85.135z m304.599 586.486H339.834l46.078-56.757h252.176l46.078 56.757h-47.297zM767.405 691.73h-510.81c-5.127 0-9.459-4.333-9.459-9.459V474.162h529.73V682.27c-0.001 5.127-4.334 9.46-9.461 9.46z" fill="#787878"></path><path d="M346.459 587.676m-47.297 0a47.297 47.297 0 1 0 94.594 0 47.297 47.297 0 1 0-94.594 0Z" fill="#787878"></path><path d="M677.541 587.676m-47.297 0a47.297 47.297 0 1 0 94.594 0 47.297 47.297 0 1 0-94.594 0Z" fill="#787878"></path></svg>